#!OML:ASF F:\VICON\USERDATA\INSTALL\rory3\rory3.ASF
:FULLY-SPECIFIED
:DEGREES
27
root 0.6746360734705545 17.8297095227138 8.785970172593832 -0.7726519649006516 -3.2172728538149964 -6.695650112481185
lfemur -24.439403762684567 -5.044283609624828 -11.237085379300078
ltibia 23.248933067206654
lfoot -9.204892450495024 3.915169633190886
ltoes -7.8676689788408005
rfemur 8.107531355479031 4.198206609688753 36.21723193773651
rtibia 35.09444823520079
rfoot -16.642511728722123 -7.940004138198412
rtoes -1.934946296613929
lowerback 10.138870326142587 2.174641570770244 6.847864950569794
upperback -0.26371774563929906 3.7678621989379932 2.2535316281737887
thorax -6.123636353671222 1.5001978388800612 -2.199020557735655
lowerneck -16.219903328737814 -3.5972624718408097 -2.0701513918318493
upperneck 21.701426548285713 -5.193966505708584 0.8516059856593128
head 9.529190206299685 -2.4004224725557206 -0.04046033548564826
lclavicle 2.999227011821096e-16 5.589714043465462e-17
lhumerus -35.822217005581884 8.624121072007439 80.8359081032671
lradius 19.102474001483227
lwrist 6.140978797837497
lhand -29.042441242289037 19.549808818773172
lfingers 7.125020000000001
lthumb -2.808906432862843 48.32396564731939
rclavicle 2.9808665174397133e-16 5.457870953885234e-17
rhumerus -20.465090792101698 -12.020786251535165 -80.46628596251323
rradius 32.75026690035935
rwrist 1.4017276778558334
rhand -18.67720303675304 22.588347318480576
rfingers 7.125020000000001
rthumb 7.470585845998771 -7.610790658328876
28
root 0.7366502975323024 17.80688360700197 9.423722617089734 -1.1736736218055823 -3.1356360653894813 -6.057156858828915
lfemur -24.119891583550444 -4.806948392982624 -12.295567450139192
ltibia 22.74964772235232
lfoot -7.612272500281417 1.973218109409581
ltoes -8.317091493973004
rfemur 9.219164626349736 4.020764154333591 35.197383964484416
rtibia 39.99772450642692
rfoot -15.716343670694219 -6.645406094926208
rtoes -2.8525299035643963
lowerback 9.818953722038108 2.2630547886995283 6.367891959840355
upperback -0.27196732732853446 3.703209233381531 2.0892354567786264
thorax -5.9906420016173145 1.6165141520785746 -2.2335856485021814
lowerneck -16.174441238903448 -3.6090944056213905 -2.1662537176088303
upperneck 21.696670510115542 -5.248363950483045 0.8642141559538323
head 9.561219902733773 -2.389639225175097 -0.01160437566845185
lclavicle 2.9992242815526766e-16 5.589694437946333e-17
lhumerus -36.1688292541079 9.218565694947824 80.44294469645438
lradius 18.821694894491237
lwrist 7.045429958322167
lhand -28.739365403623466 19.473156994673225
lfingers 7.125020000000001
lthumb -2.538082070118574 48.0506341741559
rclavicle 2.980866396857958e-16 5.45787008801141e-17
rhumerus -20.24230610295167 -12.693343767184064 -80.40442639196995
rradius 32.28250338858059
rwrist 2.0607040100919325
rhand -18.47781779692337 22.9344009470923
rfingers 7.125020000000001
rthumb 7.725992122631524 -7.131342871504854
29
root 0.7952516553878293 17.800054133174573 10.42327472126253 -1.8420057341200509 -3.020513428142249 -5.311003187639583
lfemur -24.25699396840678 -3.0523607804584802 -13.91969702283556
ltibia 26.928927595266806
lfoot -5.569010206568012 -0.9355363235894147
ltoes -8.081544954141975
rfemur 9.615364119276661 4.0026410640779275 34.20835802303531
rtibia 46.4290647659971
rfoot -13.677442404728845 -5.633252350279203
rtoes -2.9091642249576237
lowerback 9.729564310593506 2.2350874178286952 5.71075414855263
upperback -0.19448844830023354 3.7407557957244757 1.8505496463108309
thorax -5.875646351487753 1.6424327061799706 -2.2276169118056313
lowerneck -15.982555181002052 -3.6422829563943577 -2.2847188863608965
upperneck 21.813300313180342 -5.28796504383542 0.9729708567644811
head 9.617370183101437 -2.3684950735670918 0.049940005298234
lclavicle 2.999227555464576e-16 5.58971794726209e-17
lhumerus -36.535079641961175 9.516290289359496 79.9355269665053
lradius 18.662107527508645
lwrist 7.529984565867049
lhand -28.433853284578834 20.311994337974127
lfingers 7.125020000000001
lthumb -2.252588874735087 48.674718184318095
rclavicle 2.9808619479784845e-16 5.4578381414851924e-17
rhumerus -20.61881152120103 -13.482791107757087 -80.26013807407966
rradius 31.476937488380173
rwrist 2.6378758951286105
rhand -18.37621247947851 23.188322433255443
rfingers 7.125020000000001
rthumb 7.88443479599904 -6.696413975481925
30
root 0.8561315635678842 17.824882099963347 11.102658174395899 -2.6701901440370817 -2.7972013442316555 -4.32779503936871
lfemur -23.106338565666228 -2.4717899266911463 -15.917862000271516
ltibia 30.825261695094657
lfoot -4.464063613450256 -4.3740854063513614
ltoes -6.7811245290164655
rfemur 8.728707412175153 3.109293858128507 32.50100120355817
rtibia 53.47120730712736
rfoot -10.054023395340067 -4.525554028016542
rtoes -0.7855520130877012
lowerback 9.823898947937089 2.213614118817722 4.826323669864795
upperback -0.09952645189958062 3.7683957845653167 1.6248255448403475
thorax -5.844177341146468 1.635158225957196 -1.834325457858401
lowerneck -16.075257409927126 -3.651753007608153 -2.3364940554165017
upperneck 21.984651684366714 -5.232498610098881 1.0184927412872065
head 9.700118105121286 -2.3484259934816167 0.05879865576718113
lclavicle 2.999233168086734e-16 5.58975825039502e-17
lhumerus -36.59209078699006 9.79006146688732 79.47804213371568
lradius 18.669612476075216
lwrist 7.900547357809799
lhand -28.437597469390866 19.983611162871252
lfingers 7.125020000000001
lthumb -2.0587304746524815 48.98238781762204
rclavicle 2.9808637790581415e-16 5.457851290107145e-17
rhumerus -21.99056198714966 -14.723516185191375 -80.02887398359132
rradius 30.749214015989658
rwrist 3.3828867532927065
rhand -18.483732109995028 22.905130805230844
rfingers 7.125020000000001
rthumb 7.752438300914301 -7.126271064869124
31
root 0.9143430232316896 17.859425061764348 11.824285396789112 -3.436805765734235 -2.7701307840511222 -3.165140320009347
lfemur -21.8503651015009 -2.2937253531946165 -17.92387007424976
ltibia 32.715155730654224
lfoot -5.215742667141733 -5.9967338108678465
ltoes -5.8946113501385025
rfemur 5.842874532635443 1.7120876373366385 30.348040687632942
rtibia 60.23911732700198
rfoot -5.188144921576699 -3.634920339272914
rtoes 2.25943473331991
lowerback 10.047081915382472 2.1669126194298998 3.8098837699146344
upperback -0.07743644313029723 3.4539891300565992 1.3770717531270436
thorax -5.930802147485714 1.5659138855602834 -1.394538218386696
lowerneck -16.176150983674322 -3.6251337494860927 -2.4904657055114385
upperneck 22.145674214139863 -5.13603607810597 0.988359102039142
head 9.778414861813765 -2.3537091667699386 0.07159340650311438
lclavicle 2.9992345417900896e-16 5.589768114687926e-17
lhumerus -36.35851935214029 10.017529342763757 79.20964638796185
lradius 18.99781148192978
lwrist 8.278058273671443
lhand -28.74759245777155 19.600861362868166
lfingers 7.125020000000001
lthumb -2.1292855070032433 48.98138116167976
rclavicle 2.9808649562298216e-16 5.457859743144853e-17
rhumerus -23.77226776086832 -16.061952326554135 -79.6436628676351
rradius 30.124568568682047
rwrist 3.953574189451519
rhand -18.419034542231284 22.73539308404649
rfingers 7.125020000000001
rthumb 7.801271451053893 -7.446845851390038
